<svg xmlns="http://www.w3.org/2000/svg" fill="#fff" viewBox="0 0 36 36" width="36" height="36">
    <mask id="a">
        <path d="M18 36a18 18 0 100-36 18 18 0 000 36zm6.9-10.1L18 19.6 11.1 26l-1-1 6.3-6.9-6.3-6.8 1-1 7 6.2 6.8-6.3 1 1-6.3 7 6.3 6.8-1 1z"/>
    </mask>
    <path d="M18 36a18 18 0 100-36 18 18 0 000 36zm6.9-10.1L18 19.6 11.1 26l-1-1 6.3-6.9-6.3-6.8 1-1 7 6.2 6.8-6.3 1 1-6.3 7 6.3 6.8-1 1z"/>
    <path d="M18 19.6l.7-.7-.7-.6-.7.6.7.7zM25 26l-.7.7.7.7.7-.7-.7-.7zm-13.8 0l-.7.7.7.7.7-.7-.7-.7zm-1-1l-.7-.7-.7.7.7.7.7-.7zm6.3-6.9l.7.7.7-.7-.7-.7-.7.7zm-6.3-6.8l-.7-.7-.7.6.7.7.7-.6zm1-1l.7-.8-.7-.6-.7.6.7.7zm7 6.2l-.8.7.7.7.7-.7-.7-.7zm6.8-6.3l.7-.7-.7-.7-.7.7.7.7zm1 1l.7.7.7-.7-.7-.7-.7.7zm-6.3 7l-.7-.8-.6.7.6.7.7-.7zm6.3 6.8l.7.7.7-.7-.7-.7-.7.7zM35 18a17 17 0 01-17 17v2a19 19 0 0019-19h-2zM18 1a17 17 0 0117 17h2A19 19 0 0018-1v2zM1 18A17 17 0 0118 1v-2A19 19 0 00-1 18h2zm17 17A17 17 0 011 18h-2a19 19 0 0019 19v-2zm-.7-14.6l6.9 6.2 1.3-1.4-6.8-6.3-1.4 1.5zm-5.5 6.2l6.9-6.2-1.4-1.5-6.8 6.2 1.3 1.5zm-2.4-1l1 1 1.5-1.4-1-1-1.5 1.4zm6.3-8.3l-6.3 6.9 1.5 1.3 6.2-6.8-1.4-1.4zm-6.3-5.5l6.3 6.9 1.4-1.4-6.2-6.8-1.5 1.3zm1-2.4l-1 1 1.4 1.5 1-1-1.4-1.5zm8.3 6.3l-6.9-6.3-1.3 1.5 6.8 6.2 1.4-1.4zm5.5-6.3l-6.9 6.3 1.4 1.4 6.8-6.2-1.3-1.5zm2.4 1l-1-1-1.5 1.4 1 1 1.5-1.4zm-6.2 8.3l6.2-6.9-1.5-1.3-6.2 6.8 1.5 1.4zm6.2 5.5l-6.2-6.9-1.5 1.4 6.2 6.9 1.5-1.4zm-1 2.4l1-1-1.4-1.4-1 1 1.4 1.4z" mask="url(#a)"/>
</svg>