<svg xmlns="http://www.w3.org/2000/svg" fill="#fff" viewBox="0 0 221 43" width="221" height="43"><path d="M.8 33v-.7l3.7-2.1V4.5l-3.7-1v-.8h12.5l7 21.7h.2L27 2.7h11.5v.7l-2.8.7v27.6l2.8.6v.7h-14v-.7l2.5-.6V6.2h-.2L18.9 33h-4.3L5.5 6.2h-.2v24l3.9 2v.8H.8zm51.7 2c-.6 2-1.6 3.6-3 5-1.3 1.2-3 2-5 2.5L42 38v-.6h9L40.4 11.7l-2-1V10h13v.7l-2.6 1 5.5 15.4 4.9-14.6-3.3-1.8V10h6.7v.7L60 12.4 52.5 35zm42.7-14.2a17 17 0 01-1 5.8c-.5 1.6-1.2 3-2.2 4a9 9 0 01-3.5 2.2 11.7 11.7 0 01-4 .7 15 15 0 01-2.4-.1c-.7-.1-1.2-.2-1.5-.4v7.7l2.7.6v.7H70.5v-.7l2.4-.6v-28l-2.5-1v-.8l9.3-1.3h.9v2.7h.2a8.5 8.5 0 016.5-2.9 7.5 7.5 0 013 .7A6 6 0 0193 12c.7.9 1.3 2 1.6 3.5.5 1.5.7 3.2.7 5.3zm-8 .9c0-3.5-.4-6-1.1-7.2-.8-1.2-1.8-1.9-3-1.9-.5 0-1 0-1.4.2-.4 0-.8.2-1.1.3v18.6l1 .5c.3.2.8.3 1.3.3 1.3 0 2.4-.8 3.1-2.4.8-1.6 1.2-4.4 1.2-8.4zm9.4-10.8l9.3-1.3h.7v6.6h.3a12 12 0 012.3-5.3 4.5 4.5 0 014-1.5h.5v7a4.5 4.5 0 00-.8-.1 12.7 12.7 0 00-1 0l-2.9.1a9 9 0 00-2.2.6v14.7l3.1.6v.7H96.7v-.7l2.4-.6v-19l-2.5-1v-.8zM120.8.2c1.1 0 2 .3 2.9 1 .8.8 1.2 1.8 1.2 2.9s-.4 2-1.2 2.8a4.1 4.1 0 01-2.9 1.1 4 4 0 01-2.8-1c-.8-.8-1.2-1.8-1.2-2.9s.4-2 1.2-2.8a4 4 0 012.8-1.1zm-6.2 10.7l9.2-1.3h1v22l2.4.7v.7h-12.4v-.7l2.4-.7v-19l-2.6-1V11zm36.9-.2l-2.7 1.7L142 33h-4.6l-8.1-21.3-2-1V10h13v.7l-2.6 1 5.3 15h.2l4.8-14.3-3.2-1.7V10h6.7v.7zm7.5 9.7l5-1v-3c0-2.3-.2-4-.8-4.8-.5-1-1.4-1.4-2.7-1.4h-.5l-.4.1L154 18h-.8l.2-7.1a47.6 47.6 0 013.8-1c1.4-.3 3-.5 4.7-.5 3.1 0 5.5.5 7.3 1.6 1.7 1 2.6 2.8 2.6 5.4v15l2.2.5v.6c-.5.3-1.1.5-2 .7a10 10 0 01-2.6.3 7 7 0 01-3.5-.7 4 4 0 01-1.7-2h-.2a7 7 0 01-2.4 2.1c-1 .5-2.2.7-3.7.7-1.8 0-3.3-.5-4.4-1.6a6.2 6.2 0 01-1.8-4.7c0-1.9.6-3.4 1.8-4.5 1.2-1.1 3-2 5.5-2.4zm3.1 10.2c.5 0 .9 0 1.2-.2.3-.1.5-.3.7-.6v-9.2h-1.5c-1.2.2-2 .7-2.6 1.5-.5.8-.7 2-.7 3.8 0 1.9.2 3.1.8 3.7.5.7 1.2 1 2.1 1zm24.4 3c-1.9 0-3.5-.3-5-1a9.3 9.3 0 01-3.4-2.4c-1-1-1.6-2.4-2.1-3.8-.5-1.5-.7-3.2-.7-5 0-3.7 1-6.6 3.3-8.7 2.2-2.2 5.1-3.3 8.9-3.3a37.4 37.4 0 017.2.8l.2 7.8h-.8l-5.6-7.7a.8.8 0 00-.2 0h-.3c-1.6 0-2.8.8-3.7 2.5-1 1.6-1.4 4-1.4 7.1 0 3.3.6 5.8 1.8 7.4 1.2 1.7 3 2.5 5.7 2.5 1 0 1.8 0 2.5-.2a10.4 10.4 0 002-.7v.7c-.7 1-1.8 2-3.2 2.8s-3 1.1-5.2 1.1zm24 1.4c-.6 2-1.6 3.6-3 5-1.3 1.2-3 2-5 2.5L200 38v-.6h8.9l-10.4-25.7-2-1V10h13v.7l-2.7 1 5.6 15.4 4.9-14.6-3.3-1.8V10h6.7v.7l-2.6 1.7-7.6 22.6z"/></svg>
