<svg xmlns="http://www.w3.org/2000/svg" fill="none" viewBox="0 0 253 43" width="253" height="43" fill="#fff"><path d="M6.8 33v-.7l3-.6V20.6L2.2 4.4l-1.9-1v-.7h13.3v.7l-2.3 1 7 14.7h.2l5.4-13.7-3.9-2v-.7h8v.7l-3.3 2-5.9 15v11.3l3 .6v.7h-15zm30.5.6a11 11 0 01-8.5-3.3c-1-1-1.8-2.3-2.4-3.8-.6-1.6-.9-3.2-.9-5 0-2 .3-3.6.9-5 .5-1.6 1.3-2.8 2.4-3.8 1-1 2.2-1.9 3.7-2.4a13.4 13.4 0 019.7 0c1.4.5 2.6 1.3 3.7 2.4a13.5 13.5 0 013.3 8.8c0 1.8-.4 3.5-1 5-.5 1.5-1.3 2.8-2.3 3.9a11 11 0 01-3.7 2.4c-1.5.6-3.1.8-4.9.8zm0-23.4a2.5 2.5 0 00-1.5.5c-.4.3-.8.9-1.1 1.7-.3.9-.5 2-.7 3.5a59.9 59.9 0 00.7 14.7c.3.8.7 1.4 1.1 1.8a2.5 2.5 0 001.6.5c.6 0 1-.2 1.5-.5.4-.4.8-1 1-1.8a51.6 51.6 0 000-18.1c-.2-1-.6-1.5-1-1.8a2.5 2.5 0 00-1.6-.5zm15.2 2.4l-2.5-1V11l9.2-1.3h1V27c0 1.3.3 2.2.8 2.6.5.5 1.2.7 2.2.7a6 6 0 002.8-.7v-17l-2.5-1V11l9.2-1.3h1v20.8l2.4 1v.7l-9 1.4h-1v-3h-.3a12.8 12.8 0 01-3 2.2c-1.1.6-2.4.9-3.9.9-2.1 0-3.8-.6-4.8-1.8a7 7 0 01-1.6-4.8V12.6zM77.3 11l9.3-1.3h.7v6.6h.2a12 12 0 012.3-5.3 4.5 4.5 0 014-1.5h.6v7a4.5 4.5 0 00-.9-.1 12.7 12.7 0 00-1 0l-2.8.1a9 9 0 00-2.2.6v14.7l3.1.6v.7H77.4v-.7l2.4-.6v-19l-2.5-1v-.8zM127 21a17 17 0 01-.9 5.7c-.6 1.6-1.3 3-2.3 4a9 9 0 01-3.5 2.2 11.7 11.7 0 01-4 .7 15 15 0 01-2.4-.1c-.7-.1-1.2-.2-1.5-.4v7.7l2.7.6v.7h-12.8v-.7l2.4-.6v-28l-2.5-1v-.8l9.3-1.3h.9v2.7h.2a8.5 8.5 0 016.5-2.9 7.5 7.5 0 013 .7 6 6 0 012.6 1.9c.7.9 1.3 2 1.7 3.5.4 1.5.6 3.2.6 5.3zm-8 .8c0-3.5-.4-6-1.1-7.2-.8-1.2-1.8-1.9-3-1.9-.5 0-1 0-1.4.2-.4 0-.8.2-1 .3v18.6l.9.5c.3.2.8.3 1.3.3 1.3 0 2.4-.8 3.1-2.4.8-1.6 1.2-4.4 1.2-8.4zm9.4-10.8l9.3-1.3h.8v6.6h.2a12 12 0 012.3-5.3 4.5 4.5 0 014-1.5h.5v7a4.5 4.5 0 00-.8-.1 12.7 12.7 0 00-1 0l-2.9.1a9 9 0 00-2.2.6v14.7l3.1.6v.7h-13.2v-.7l2.4-.6v-19l-2.5-1v-.8zM152.7.2c1.1 0 2 .3 2.9 1 .8.8 1.2 1.8 1.2 2.9s-.4 2-1.2 2.8a4.1 4.1 0 01-2.9 1.1 4 4 0 01-2.8-1c-.8-.8-1.2-1.8-1.2-2.9s.4-2 1.2-2.8a4 4 0 012.8-1.1zm-6.2 10.7l9.2-1.3h1v22l2.4.7v.7h-12.4v-.7l2.4-.7v-19l-2.6-1V11zm36.9-.2l-2.7 1.7L174 33h-4.6l-8.1-21.3-2-1V10h13v.7l-2.6 1 5.3 15h.2l4.8-14.3-3.2-1.7V10h6.7v.7zm7.5 9.7l5-1v-3c0-2.3-.2-4-.8-4.8-.5-1-1.4-1.4-2.7-1.4h-.4l-.5.1L186 18h-.7l.1-7.1a47.6 47.6 0 013.8-1c1.4-.3 3-.5 4.7-.5 3.1 0 5.5.5 7.3 1.6 1.7 1 2.6 2.8 2.6 5.4v15l2.2.5v.6c-.4.3-1 .5-2 .7a10 10 0 01-2.6.3 7 7 0 01-3.5-.7 4 4 0 01-1.7-2h-.2a7 7 0 01-2.4 2.1c-1 .5-2.2.7-3.6.7-1.9 0-3.4-.5-4.5-1.6a6.2 6.2 0 01-1.8-4.7c0-1.9.6-3.4 1.8-4.5 1.3-1.1 3-2 5.5-2.4zm3.1 10.2c.5 0 .9 0 1.2-.2.3-.1.6-.3.7-.6v-9.2h-1.5c-1.2.2-2 .7-2.6 1.5-.5.8-.7 2-.7 3.8 0 1.9.2 3.1.8 3.7.5.7 1.2 1 2.1 1zm24.4 3c-1.8 0-3.5-.3-5-1a9.3 9.3 0 01-3.4-2.4c-1-1-1.6-2.4-2.1-3.8-.5-1.5-.7-3.2-.7-5 0-3.7 1-6.6 3.3-8.7 2.2-2.2 5.1-3.3 8.9-3.3a37.4 37.4 0 017.2.8l.2 7.8h-.8l-5.6-7.7a.8.8 0 00-.2 0h-.2c-1.7 0-3 .8-3.8 2.5-1 1.6-1.4 4-1.4 7.1 0 3.3.6 5.8 1.8 7.4 1.2 1.7 3 2.5 5.7 2.5 1 0 1.8 0 2.5-.2a10.4 10.4 0 002-.7v.7c-.7 1-1.8 2-3.1 2.8s-3.2 1.1-5.3 1.1zm24 1.4c-.6 2-1.6 3.6-3 5-1.2 1.2-3 2-5 2.5l-2.5-4.5v-.6h9l-10.5-25.7-2-1V10h13v.7l-2.6 1 5.5 15.4 4.9-14.6-3.3-1.8V10h6.7v.7l-2.5 1.7-7.7 22.6z"/></svg>
