<svg width="253" height="43" fill="none" xmlns="http://www.w3.org/2000/svg"><path d="M6.762 33v-.714l3.108-.63V20.568L2.142 4.44.21 3.432v-.714h13.314v.714l-2.31.966 6.93 14.7h.21l5.418-13.65-3.864-2.016v-.714h7.98v.714L24.612 5.49l-5.88 14.826v11.34l2.982.63V33H6.762zM37.328 33.63c-1.736 0-3.332-.28-4.788-.84-1.456-.588-2.702-1.4-3.738-2.436-1.036-1.064-1.848-2.352-2.436-3.864-.56-1.54-.84-3.234-.84-5.082 0-1.848.28-3.514.84-4.998.56-1.484 1.358-2.73 2.394-3.738 1.036-1.036 2.268-1.834 3.696-2.394 1.456-.56 3.066-.84 4.83-.84 1.764 0 3.374.28 4.83.84 1.456.56 2.702 1.358 3.738 2.394 1.036 1.008 1.834 2.268 2.394 3.78.588 1.484.882 3.15.882 4.998 0 1.848-.28 3.528-.84 5.04-.56 1.512-1.358 2.8-2.394 3.864-1.036 1.036-2.282 1.848-3.738 2.436-1.456.56-3.066.84-4.83.84zm0-23.436a2.52 2.52 0 00-1.554.504c-.42.308-.784.882-1.092 1.722-.28.84-.504 2.002-.672 3.486-.14 1.456-.21 3.304-.21 5.544 0 2.268.07 4.144.21 5.628.168 1.456.392 2.618.672 3.486.308.868.686 1.47 1.134 1.806a2.52 2.52 0 001.554.504c.588 0 1.092-.168 1.512-.504.448-.364.812-.966 1.092-1.806.28-.868.49-2.044.63-3.528.168-1.484.252-3.36.252-5.628 0-2.24-.07-4.088-.21-5.544-.14-1.456-.364-2.604-.672-3.444-.28-.84-.644-1.414-1.092-1.722a2.52 2.52 0 00-1.554-.504zM52.524 12.63l-2.52-1.008v-.714l9.198-1.344 1.008.084v17.388c0 1.288.252 2.156.756 2.604.532.448 1.26.672 2.184.672.532 0 1.022-.056 1.47-.168.476-.14.938-.308 1.386-.504V12.63l-2.52-1.008v-.714l9.198-1.344.924.084v20.706l2.478 1.008v.714l-9.072 1.428-.924-.084v-2.94h-.252a12.805 12.805 0 01-3.024 2.226c-1.148.588-2.436.882-3.864.882-2.184 0-3.808-.602-4.872-1.806-1.036-1.204-1.554-2.786-1.554-4.746V12.63zM77.286 10.908l9.282-1.344.756.084V16.2h.21c.588-2.492 1.358-4.256 2.31-5.292.98-1.064 2.114-1.596 3.402-1.596.196 0 .406.014.63.042.224.028.392.07.504.126v6.93a4.488 4.488 0 00-.84-.126 12.651 12.651 0 00-1.05-.042c-1.036 0-1.96.056-2.772.168a8.945 8.945 0 00-2.226.588v14.658l3.108.63V33H77.412v-.714l2.394-.63V12.63l-2.52-1.008v-.714zM127.083 20.82c0 2.24-.294 4.172-.882 5.796-.56 1.624-1.33 2.954-2.31 3.99a9.027 9.027 0 01-3.444 2.226 11.658 11.658 0 01-4.074.714 14.97 14.97 0 01-2.352-.168c-.672-.112-1.176-.224-1.512-.336v7.644l2.73.588v.714h-12.81v-.714l2.394-.588V12.63l-2.52-1.008v-.714l9.282-1.344.882.084v2.646h.252c.588-.7 1.428-1.344 2.52-1.932 1.092-.616 2.408-.924 3.948-.924a7.51 7.51 0 013.066.63c.98.392 1.82 1.036 2.52 1.932.728.896 1.288 2.072 1.68 3.528.42 1.456.63 3.22.63 5.292zm-8.022.84c0-3.5-.364-5.88-1.092-7.14-.728-1.26-1.736-1.89-3.024-1.89-.476 0-.924.056-1.344.168-.42.084-.784.182-1.092.294v18.564c.28.196.602.378.966.546.364.168.812.252 1.344.252 1.316 0 2.352-.798 3.108-2.394.756-1.596 1.134-4.396 1.134-8.4zM128.515 10.908l9.282-1.344.756.084V16.2h.21c.588-2.492 1.358-4.256 2.31-5.292.98-1.064 2.114-1.596 3.402-1.596.196 0 .406.014.63.042.224.028.392.07.504.126v6.93a4.488 4.488 0 00-.84-.126 12.651 12.651 0 00-1.05-.042c-1.036 0-1.96.056-2.772.168a8.945 8.945 0 00-2.226.588v14.658l3.108.63V33h-13.188v-.714l2.394-.63V12.63l-2.52-1.008v-.714zM152.737.156c1.092 0 2.044.378 2.856 1.134.812.756 1.218 1.694 1.218 2.814s-.406 2.058-1.218 2.814a4.142 4.142 0 01-2.856 1.092c-1.12 0-2.072-.364-2.856-1.092-.784-.756-1.176-1.694-1.176-2.814s.392-2.058 1.176-2.814c.784-.756 1.736-1.134 2.856-1.134zm-6.216 10.752l9.198-1.344 1.05.084v21.966l2.352.672V33h-12.432v-.714l2.394-.672V12.63l-2.562-1.008v-.714zM183.376 10.698l-2.646 1.722L173.926 33h-4.62L161.2 11.748l-1.932-1.05v-.714h12.978v.714l-2.646 1.008 5.334 14.994h.21l4.788-14.28-3.234-1.722v-.714h6.678v.714zM190.909 20.442l5.04-.966V16.41c0-2.324-.28-3.934-.84-4.83-.532-.896-1.442-1.344-2.73-1.344-.14 0-.28.014-.42.042-.14 0-.28.014-.42.042l-5.67 7.686h-.714l.168-7.14a47.558 47.558 0 013.738-.966c1.4-.308 2.996-.462 4.788-.462 3.08 0 5.488.504 7.224 1.512 1.736 1.008 2.604 2.814 2.604 5.418V31.32l2.226.588v.588c-.448.28-1.092.518-1.932.714a9.922 9.922 0 01-2.646.336c-1.512 0-2.674-.238-3.486-.714-.812-.476-1.386-1.134-1.722-1.974h-.21a6.942 6.942 0 01-2.436 2.058c-.98.476-2.184.714-3.612.714-1.848 0-3.346-.546-4.494-1.638-1.148-1.12-1.722-2.674-1.722-4.662 0-1.932.602-3.444 1.806-4.536 1.204-1.12 3.024-1.904 5.46-2.352zm3.108 10.164c.476 0 .868-.07 1.176-.21.308-.14.56-.336.756-.588v-9.24l-1.554.126c-1.204.112-2.058.588-2.562 1.428-.504.812-.756 2.072-.756 3.78 0 1.848.266 3.094.798 3.738.56.644 1.274.966 2.142.966zM218.404 33.546c-1.848 0-3.486-.294-4.914-.882-1.4-.588-2.562-1.414-3.486-2.478-.924-1.064-1.624-2.338-2.1-3.822-.476-1.512-.714-3.164-.714-4.956 0-3.668 1.092-6.58 3.276-8.736 2.212-2.156 5.18-3.234 8.904-3.234 1.484 0 2.856.07 4.116.21 1.288.112 2.338.294 3.15.546l.126 7.77h-.714l-5.628-7.686a.793.793 0 00-.252-.042h-.21c-1.624 0-2.884.84-3.78 2.52-.896 1.68-1.344 4.074-1.344 7.182 0 3.248.588 5.712 1.764 7.392 1.176 1.652 3.066 2.478 5.67 2.478.952 0 1.792-.07 2.52-.21a10.437 10.437 0 002.058-.672v.714c-.756 1.036-1.82 1.946-3.192 2.73s-3.122 1.176-5.25 1.176zM242.448 35.016c-.672 1.988-1.666 3.626-2.982 4.914-1.316 1.288-3.01 2.156-5.082 2.604l-2.478-4.536v-.63h8.904l-10.374-25.704-2.016-.966v-.714h12.936v.714l-2.604 1.092 5.586 15.33 4.83-14.616-3.276-1.806v-.714h6.678v.714l-2.52 1.68-7.602 22.638z" fill="#fff"/></svg>